<?xml version="1.0" encoding="UTF-8"?>
<svg width="42px" height="60px" viewBox="0 0 42 60" version="1.1" xmlns="http://www.w3.org/2000/svg" xmlns:xlink="http://www.w3.org/1999/xlink">
    <!-- Generator: Sketch 45.2 (43514) - http://www.bohemiancoding.com/sketch -->
    <title>Group 2</title>
    <desc>Created with Sketch.</desc>
    <defs></defs>
    <g id="Page-1" stroke="none" stroke-width="1" fill="none" fill-rule="evenodd">
        <g id="Group-2" fill-rule="nonzero">
            <g id="map-marker-copy">
                <g id="Group">
                    <path d="M9.06193202,3.32686567 C12.6345617,1.12835821 16.8450805,0.0104477612 21.0398211,0.0208955224 C21.0368157,2.92985075 21.0353131,5.83955224 21.0405725,8.74850746 C17.1809302,9.74850746 13.3070125,10.6985075 9.4473703,11.6977612 C9.44887299,16.0567164 9.4473703,20.4149254 9.44812165,24.7738806 C9.46389982,26.3940299 9.35044723,28.0470149 9.78472272,29.6283582 C10.3069052,31.6679104 11.5811807,33.4664179 13.2168515,34.7843284 C15.2725224,36.4485075 17.7865116,37.4753731 20.3598569,38.0440299 C20.5920215,38.0955224 20.8256887,38.15 21.063864,38.1664179 C21.0037567,39.2492537 21.0540966,40.3358209 21.0375671,41.4201493 C21.0368157,47.388806 21.0383184,53.358209 21.0368157,59.3268657 C21.0398211,59.4955224 21.0540966,59.6634328 21.0631127,59.8335821 C21.0450805,59.8619403 21.0090161,59.9179104 20.9909839,59.9462687 C19.3237567,57.488806 17.727907,54.9843284 16.1410733,52.4746269 C13.0124866,47.4902985 9.98908766,42.4380597 7.19484794,37.2604478 C6.23613596,35.480597 5.3067263,33.6850746 4.42389982,31.8664179 C3.24128801,29.4171642 2.12479428,26.930597 1.23069767,24.361194 C0.637137746,22.6171642 0.115706619,20.8276119 -1.0658141e-14,18.980597 L-1.0658141e-14,18.45 C0.0255456172,16.2104478 0.508658318,13.9783582 1.41026834,11.9253731 C2.96779964,8.35149254 5.73799642,5.36268657 9.06193202,3.32686567 Z" id="Shape" fill="#929292"></path>
                    <path d="M11.3159571,13.0328358 C14.5534884,12.2 17.8000358,11.3992537 21.0405725,10.5768657 C21.0345617,10.9291045 21.0360644,11.2820896 21.0443292,11.6350746 C18.1268694,12.3559701 15.2094097,13.0776119 12.2919499,13.7970149 C12.2874419,15.5320896 12.2889445,17.2664179 12.2911986,19.0014925 C15.2071556,18.2798507 18.1223614,17.5529851 21.0413238,16.841791 C21.0390698,17.1544776 21.0375671,17.4671642 21.0323077,17.7798507 C19.797102,18.1238806 18.5664043,18.4880597 17.338712,18.8574627 C17.3394633,23.7955224 17.3402147,28.7343284 17.3379606,33.6723881 C18.5198211,34.3126866 19.7437567,34.9007463 21.0338104,35.2880597 C21.0405725,35.6559701 21.0383184,36.0246269 21.0353131,36.3925373 C19.412415,36.0537313 17.8330948,35.491791 16.3754919,34.7044776 C14.8570304,33.880597 13.4617889,32.758209 12.5263685,31.2970149 C11.7081574,30.0283582 11.3009302,28.5179104 11.3167084,27.0156716 C11.3167084,22.3544776 11.3189624,17.6940299 11.3159571,13.0328358 L11.3159571,13.0328358 Z M12.1837567,19.9835821 C12.1920215,22.4529851 12.182254,24.9223881 12.1882648,27.391791 C12.1995349,28.3574627 12.445975,29.3179104 12.8997853,30.1716418 C13.6451163,31.5626866 14.8810733,32.638806 16.2417531,33.4186567 C16.2440072,28.6059701 16.2425045,23.7932836 16.2425045,18.9813433 C14.8885868,19.311194 13.5339177,19.6402985 12.1837567,19.9835821 L12.1837567,19.9835821 Z" id="Shape" fill="#999999"></path>
                    <path d="M12.4234347,20.1492537 C13.6195707,19.8597015 14.8119499,19.5529851 16.0103399,19.2731343 C15.9983184,23.8522388 16.0283721,28.4320896 15.9945617,33.011194 C14.8389982,32.2671642 13.7788551,31.3179104 13.1259392,30.0977612 C12.6540966,29.2231343 12.4106619,28.2313433 12.4204293,27.2402985 C12.4226834,24.8768657 12.4159213,22.5126866 12.4234347,20.1492537 Z" id="Shape" fill="#A6A6A6"></path>
                </g>
                <g id="Group" transform="translate(20.962433, 0.000000)">
                    <path d="M0.0773881932,0.0208955224 C4.28715564,0.0104477612 8.51044723,1.15149254 12.0845796,3.37313433 C14.8773166,5.10373134 17.2703399,7.50149254 18.8699463,10.3671642 C20.2073345,12.7455224 20.9586762,15.4432836 21.0375671,18.1664179 L21.0375671,18.9097015 C20.9541682,20.4022388 20.5897674,21.8619403 20.1479785,23.2850746 C19.289195,26.0052239 18.1381395,28.6238806 16.916458,31.2 C14.4197496,36.4037313 11.5691592,41.4320896 8.61037567,46.3895522 C5.87924866,50.9350746 3.05570662,55.4276119 0.100679785,59.8335821 C0.0916636852,59.6634328 0.0773881932,59.4955224 0.0743828265,59.3268657 C0.0758855098,53.358209 0.0743828265,47.388806 0.0751341682,41.4201493 C0.0916636852,40.3358209 0.0413237925,39.2492537 0.101431127,38.1664179 C2.79198569,37.6276119 5.44647585,36.6544776 7.63137746,34.9708955 C8.85005367,34.0358209 9.89742397,32.8626866 10.5991771,31.4962687 C11.2566011,30.2283582 11.608229,28.8089552 11.641288,27.3850746 C11.6427907,22.1432836 11.6472987,16.9007463 11.639034,11.6589552 C7.7854025,10.6902985 3.92951699,9.72835821 0.0781395349,8.74850746 C0.0728801431,5.83955224 0.0743828265,2.92985075 0.0773881932,0.0208955224 Z" id="Shape" fill="#656565"></path>
                    <path d="M0.0781395349,10.5768657 C3.31792487,11.3932836 6.56071556,12.1985075 9.79749553,13.0283582 C9.79298748,17.7164179 9.79749553,22.4044776 9.7952415,27.0925373 C9.78998211,28.3447761 9.50898032,29.6037313 8.91842576,30.7149254 C8.25123435,32 7.2121288,33.0656716 6.03101968,33.8985075 C4.2540966,35.1402985 2.18940966,35.9365672 0.0728801431,36.3925373 C0.0758855098,36.0246269 0.0781395349,35.6559701 0.0713774597,35.2880597 C1.34565295,34.8858209 2.55831843,34.3126866 3.73717352,33.6910448 C3.74168157,28.7432836 3.73717352,23.7955224 3.73942755,18.8485075 C2.51699463,18.488806 1.29230769,18.1380597 0.0698747764,17.7798507 C0.0751341682,17.4671642 0.0766368515,17.1544776 0.0788908766,16.841791 C3.00010733,17.5514925 5.91681574,18.2791045 8.83577818,18.9992537 C8.83878354,17.2634328 8.84254025,15.5268657 8.83352415,13.7910448 C5.91456172,13.0783582 2.99860465,12.3552239 0.0818962433,11.6350746 C0.0736314848,11.2820896 0.0721288014,10.9291045 0.0781395349,10.5768657 L0.0781395349,10.5768657 Z M4.9859034,33.4201493 C5.54415027,33.0813433 6.08962433,32.7179104 6.58175313,32.2873134 C7.70876565,31.3350746 8.5855814,30.0462687 8.89137746,28.5947761 C8.99355993,28.0738806 9.0454025,27.541791 9.0326297,27.011194 C9.0326297,24.6686567 9.03187835,22.3261194 9.0326297,19.9835821 C7.68547406,19.6373134 6.33005367,19.3238806 4.98289803,18.9761194 C4.97388193,23.7902985 4.96862254,28.6059701 4.9859034,33.4201493 L4.9859034,33.4201493 Z" id="Shape" fill="#717171"></path>
                    <path d="M5.21355993,33.0089552 C5.20830054,28.4298507 5.21055456,23.85 5.21205725,19.2708955 C6.40368515,19.5537313 7.58855098,19.8634328 8.78093023,20.1410448 C8.82751342,22.480597 8.78543828,24.8231343 8.80121646,27.1641791 C8.80797853,28.3507463 8.48490161,29.5432836 7.82597496,30.5380597 C7.16629696,31.5522388 6.23313059,32.3649254 5.21355993,33.0089552 L5.21355993,33.0089552 Z" id="Shape" fill="#6E6E6E"></path>
                </g>
                <g id="Group" transform="translate(9.391771, 8.731343)" fill="#FFFFFF">
                    <path d="M0.0555992844,2.96641791 C3.9152415,1.96716418 7.78915921,1.01716418 11.6488014,0.0171641791 C15.5001789,0.997014925 19.3560644,1.95895522 23.2096959,2.92761194 C23.2179606,8.16940299 23.2134526,13.4119403 23.2119499,18.6537313 C23.1788909,20.0776119 22.827263,21.4970149 22.169839,22.7649254 C21.4680859,24.1313433 20.4207156,25.3044776 19.2020394,26.2395522 C17.0171377,27.9231343 14.3626476,28.8962687 11.672093,29.4350746 C11.4339177,29.4186567 11.2002504,29.3641791 10.9680859,29.3126866 C8.39474061,28.7440299 5.88075134,27.7171642 3.8250805,26.0529851 C2.18940966,24.7350746 0.915134168,22.9365672 0.392951699,20.8970149 C-0.0413237925,19.3156716 0.0721288014,17.6626866 0.0563506261,16.0425373 C0.0555992844,11.6835821 0.0571019678,7.32537313 0.0555992844,2.96641791 L0.0555992844,2.96641791 Z M1.92418605,4.30149254 C1.92719141,8.96268657 1.92493739,13.6231343 1.92493739,18.2843284 C1.90915921,19.7865672 2.3163864,21.2970149 3.1345975,22.5656716 C4.07001789,24.0268657 5.46525939,25.1492537 6.98372093,25.9731343 C8.44132379,26.7604478 10.020644,27.3223881 11.643542,27.661194 C13.7600716,27.2052239 15.8247585,26.4089552 17.6016816,25.1671642 C18.7827907,24.3343284 19.8218962,23.2686567 20.4890877,21.9835821 C21.0796422,20.8723881 21.360644,19.6134328 21.3659034,18.361194 C21.3681574,13.6731343 21.3636494,8.98507463 21.3681574,4.29701493 C18.1313775,3.46716418 14.8885868,2.6619403 11.6488014,1.84552239 C8.40826476,2.66791045 5.16171735,3.46865672 1.92418605,4.30149254 L1.92418605,4.30149254 Z" id="Shape"></path>
                    <path d="M2.90017889,5.06567164 C5.81763864,4.34626866 8.73509839,3.62462687 11.6525581,2.90373134 C14.5692665,3.6238806 17.4852236,4.34701493 20.404186,5.05970149 C20.4132021,6.79552239 20.4094454,8.53208955 20.4064401,10.2679104 C17.4874776,9.54776119 14.5707692,8.82014925 11.6495528,8.11044776 C8.73059034,8.82164179 5.81538462,9.54850746 2.89942755,10.2701493 C2.89717352,8.53507463 2.89567084,6.80074627 2.90017889,5.06567164 L2.90017889,5.06567164 Z" id="Shape"></path>
                    <path d="M7.94694097,10.1261194 C9.17463327,9.75671642 10.4053309,9.39253731 11.6405367,9.04850746 C12.8629696,9.40671642 14.0876565,9.75746269 15.3100894,10.1171642 C15.3078354,15.0641791 15.3123435,20.0119403 15.3078354,24.9597015 C14.1289803,25.5813433 12.9163148,26.1544776 11.6420394,26.5567164 C10.3519857,26.169403 9.12805009,25.5813433 7.94618962,24.9410448 C7.94844365,20.0029851 7.94769231,15.0641791 7.94694097,10.1261194 L7.94694097,10.1261194 Z M2.79198569,11.2522388 C4.14214669,10.9089552 5.49681574,10.5798507 6.85073345,10.25 C6.85073345,15.0619403 6.85223614,19.8746269 6.84998211,24.6873134 C5.48930233,23.9074627 4.25334526,22.8313433 3.50801431,21.4402985 C3.05420394,20.5865672 2.80776386,19.6261194 2.79649374,18.6604478 C2.79048301,16.1910448 2.80025045,13.7216418 2.79198569,11.2522388 L2.79198569,11.2522388 Z M3.03166369,11.4179104 C3.02415027,13.7813433 3.03091234,16.1455224 3.02865832,18.5089552 C3.01889088,19.5 3.26232558,20.491791 3.73416816,21.3664179 C4.38708408,22.5865672 5.44722719,23.5358209 6.6027907,24.2798507 C6.63660107,19.7007463 6.60654741,15.1208955 6.61856887,10.541791 C5.42017889,10.8216418 4.22779964,11.1283582 3.03166369,11.4179104 L3.03166369,11.4179104 Z M16.5565653,24.688806 C16.5392844,19.8746269 16.5445438,15.0589552 16.5535599,10.2447761 C17.9007156,10.5925373 19.256136,10.9059701 20.6032916,11.2522388 C20.6025403,13.5947761 20.6032916,15.9373134 20.6032916,18.2798507 C20.6160644,18.8104478 20.5642218,19.3425373 20.4620394,19.8634328 C20.1562433,21.3149254 19.2794275,22.6037313 18.152415,23.5559701 C17.6602862,23.9865672 17.1148122,24.35 16.5565653,24.688806 L16.5565653,24.688806 Z M16.7842218,24.2776119 C17.8037925,23.6335821 18.7369589,22.8208955 19.3966369,21.8067164 C20.0555635,20.8119403 20.3786404,19.619403 20.3718784,18.4328358 C20.3561002,16.091791 20.3981753,13.7492537 20.3515921,11.4097015 C19.1592129,11.1320896 17.974347,10.8223881 16.7827191,10.5395522 C16.7812165,15.1186567 16.7789624,19.6985075 16.7842218,24.2776119 L16.7842218,24.2776119 Z" id="Shape"></path>
                </g>
            </g>
        </g>
    </g>
</svg>